<svg xmlns="http://www.w3.org/2000/svg" width="64" height="64" viewBox="0 0 64 64" shape-rendering="crispEdges">
<rect x="0" y="0" width="64" height="64" fill="transparent"/>
<rect x="18" y="44" width="28" height="14" fill="#E84545"/>
<rect x="14" y="50" width="36" height="10" fill="#2A2320"/>
<rect x="18" y="48" width="28" height="10" fill="#E84545"/>
<rect x="26" y="38" width="12" height="10" fill="#E8B788"/>
<rect x="20" y="18" width="24" height="24" fill="#E8B788"/>
<rect x="18" y="24" width="4" height="12" fill="#E8B788"/>
<rect x="42" y="24" width="4" height="12" fill="#E8B788"/>
<rect x="20" y="14" width="24" height="8" fill="#2A2320"/>
<rect x="16" y="20" width="6" height="12" fill="#2A2320"/>
<rect x="42" y="20" width="6" height="12" fill="#2A2320"/>
<rect x="25" y="28" width="4" height="4" fill="#2A2320"/>
<rect x="35" y="28" width="4" height="4" fill="#2A2320"/>
<rect x="29" y="37" width="8" height="3" fill="#7A3F2B"/>
<rect x="20" y="42" width="24" height="3" fill="#2A2320"/>
<rect x="14" y="10" width="36" height="16" fill="#E84545"/>
<rect x="18" y="24" width="28" height="5" fill="#FFF8E7"/>
<rect x="46" y="18" width="4" height="8" fill="#2A2320"/>
<rect x="15" y="18" width="4" height="18" fill="#2A2320"/>
<rect x="45" y="18" width="4" height="18" fill="#2A2320"/>
<rect x="18" y="14" width="28" height="4" fill="#2A2320"/>
<rect x="43" y="36" width="8" height="3" fill="#E84545"/>
</svg>
